<svg xmlns="http://www.w3.org/2000/svg" data-name="Warstwa 1" role="img" aria-label="title" width="35" height="35" style=""><rect id="backgroundrect" width="100%" height="100%" x="0" y="0" fill="none" stroke="none"/><title>cinemapage.whatson.order.release.date</title>
  <title>cci</title>



<g class="currentLayer" style=""><title>Layer 1</title><path d="M30.49,34.28h-26a4,4,0,0,1-4-4v-21a4,4,0,0,1,4-4h26a4,4,0,0,1,4,4v21A4,4,0,0,1,30.49,34.28Zm-26-27a2,2,0,0,0-2,2v21a2,2,0,0,0,2,2h26a2,2,0,0,0,2-2v-21a2,2,0,0,0-2-2h-26Z" id="svg_1" class="" fill="#ffffff" fill-opacity="1"/><g id="svg_2" class="" fill="#ffffff" fill-opacity="1">
    <path d="M10.5,10.72a1,1,0,0,1-1-.93V1.65a1,1,0,0,1,2,0V9.79A1,1,0,0,1,10.5,10.72Z" id="svg_3" fill="#ffffff" fill-opacity="1"/>
    <path d="M17.5,10.72a1,1,0,0,1-1-.93V1.65a1,1,0,0,1,2,0V9.79A1,1,0,0,1,17.5,10.72Z" id="svg_4" fill="#ffffff" fill-opacity="1"/>
    <path d="M24.5,10.72a1,1,0,0,1-1-.93V1.65a1,1,0,0,1,2,0V9.79A1,1,0,0,1,24.5,10.72Z" id="svg_5" fill="#ffffff" fill-opacity="1"/>
  </g><polygon points="17.35 15.63 19.2 19.25 23.35 19.83 20.35 22.65 21.06 26.63 17.35 24.75 13.64 26.63 14.35 22.65 11.35 19.83 15.49 19.25 17.35 15.63" id="svg_6" class="" fill="#ffffff" fill-opacity="1"/></g></svg>
